# xmcd
#
# Track frame offsets:
#	150
#	9685
#	21425
#	31600
#	44215
#	52480
#	64920
#	79705
#	91295
#	105040
#	117200
#	129995
#	140905
#	153600
#	163330
#	178040
#	192160
#	203830
#	215180
#	230760
#	242920
#	253435
#	269690
#	283715
#	295785
#	307650
#
# Disc length: 4246 seconds
#
# Revision: 1
# Processed by: cddbd v1.5.2PL0 Copyright (c) Steve Scherf et al.
# Submitted via: audiograbber 1.82.02
#
DISCID=9410941a
DTITLE=Reg Lindsay - Classics And Play Me A Simple Song
DYEAR=1972
DGENRE=Country
TTITLE0=Geisha
TTITLE1=The Auctioner
TTITLE2=Where No Man Stands Alone
TTITLE3=The House Down Willow Lane
TTITLE4=South Pacific Shore
TTITLE5=The Blue Velvet Band
TTITLE6=Wedding Bells
TTITLE7=Don't Steal Daddy's Medals
TTITLE8=My Old Canadian Home
TTITLE9=Beautiful Memories, Beautiful Dreams
TTITLE10=Will There Be Any Stars In My Crown
TTITLE11=May The Bird Of Paradise Fly Up Your Nose
TTITLE12=The Girl In My Home Town
TTITLE13=Lets Be Sweethearts Again
TTITLE14=I Was There
TTITLE15=Thinestones Are Forever
TTITLE16=Let Me Be The One
TTITLE17=Just Don't Wast My Time
TTITLE18=I Don't Wanna Want You
TTITLE19=Old Fashioned Lady
TTITLE20=If I'd Known I Was Gonna Live This Long
TTITLE21=Would You Take You Back Again
TTITLE22=She Makes Love Feel Good
TTITLE23=Blue
TTITLE24=Simple Song
TTITLE25=Southern Sound
EXTD=
EXTT0=
EXTT1=
EXTT2=
EXTT3=
EXTT4=
EXTT5=
EXTT6=
EXTT7=
EXTT8=
EXTT9=
EXTT10=
EXTT11=
EXTT12=
EXTT13=
EXTT14=
EXTT15=
EXTT16=
EXTT17=
EXTT18=
EXTT19=
EXTT20=
EXTT21=
EXTT22=
EXTT23=
EXTT24=
EXTT25=
PLAYORDER=
